<?xml version="1.0" encoding="UTF-8"?><svg id="Layer_1" xmlns="http://www.w3.org/2000/svg" xmlns:xlink="http://www.w3.org/1999/xlink" viewBox="0 0 368.71 309.67"><defs><linearGradient id="New_Gradient_Swatch_copy_2" x1="176.14" y1="125.3" x2="176.14" y2="229.27" gradientUnits="userSpaceOnUse"><stop offset="0" stop-color="#23d0d0"/><stop offset="1" stop-color="#0c97a5"/></linearGradient><linearGradient id="New_Gradient_Swatch_copy_3" x1="243.1" y1="88.48" x2="243.1" y2="246.16" gradientUnits="userSpaceOnUse"><stop offset="0" stop-color="#23e5bf"/><stop offset="1" stop-color="#0aa689"/></linearGradient><linearGradient id="New_Gradient_Swatch" x1="56.87" y1="63.2" x2="56.87" y2="125.3" gradientUnits="userSpaceOnUse"><stop offset="0" stop-color="#23e5bf"/><stop offset="1" stop-color="#0aa689"/></linearGradient><linearGradient id="New_Gradient_Swatch-2" x1="122.52" y1="45.06" x2="122.52" xlink:href="#New_Gradient_Swatch"/><linearGradient id="New_Gradient_Swatch_copy" x1="194.46" y1="125.3" x2="194.46" y2="3.66" gradientUnits="userSpaceOnUse"><stop offset="0" stop-color="#23d0d0"/><stop offset=".03" stop-color="#ffd092"/><stop offset="1" stop-color="#fbb03b"/></linearGradient></defs><path d="M289.58,125.3c-66.58,42.06-140.16,101.56-168.44,103.97-33.35-20.33-56.18-56.26-58.28-97.66v-.06c-.1-2.08-.16-4.15-.16-6.25h226.88Z" style="fill:url(#New_Gradient_Swatch_copy_2);"/><path d="M184.36,249.15c-9.88,0-19.77-1.19-29.4-3.53-13.02-2.78-25.36-7.62-36.63-14.38-34.7-20.84-55.71-57.12-57.66-99.53v-.1c-.11-2.18-.16-4.26-.16-6.3h4.39c0,1.97.05,3.98.16,6.14v.11c1.88,40.88,22.12,75.86,55.54,95.93,10.85,6.51,22.74,11.18,35.34,13.87,9.35,2.27,18.89,3.42,28.42,3.42,20.9,0,41.5-5.51,59.57-15.93l.14-.07c15.62-7.59,30.86-17.96,45.29-30.84,25.76-22.97,50.36-39.79,73.13-49.97l1.79,4.01c-22.35,10-46.57,26.57-72,49.24-14.71,13.13-30.26,23.72-46.22,31.48-18.72,10.78-40.06,16.48-61.7,16.48Z" style="fill:#044a59;"/><path d="M184.36,260.96c-10.33,0-21.14-1.29-32.14-3.85-14.64-3.4-28.1-8.78-40-16-18.21-11.05-33.6-26.6-44.5-44.98-11.4-19.21-17.74-40.69-18.83-63.83v-.1s0,0,0,0c-.12-2.41-.18-4.71-.18-6.91h4.39c0,2.17.06,4.43.17,6.74v.11c1.07,22.4,7.2,43.18,18.23,61.75,10.54,17.76,25.41,32.79,43,43.46,11.5,6.98,24.53,12.18,38.72,15.48,10.67,2.48,21.15,3.73,31.15,3.73,21.95,0,43.69-5.58,62.86-16.13l.11-.05c16.6-8,32.49-19.01,47.22-32.73,25.71-23.8,47.06-42.02,64.22-56.65l3.19-2.72,2.85,3.34-3.19,2.72c-17.12,14.61-38.43,32.79-64.08,56.53-15.03,14-31.27,25.25-48.25,33.44-19.8,10.89-42.25,16.65-64.92,16.65Z" style="fill:#044a59;"/><path d="M184.36,272.77c-11.41,0-23.15-1.4-34.92-4.17-15.7-3.69-30.28-9.62-43.35-17.61-40.85-25-66.65-69.14-69.01-118.08-.13-2.62-.19-5.16-.19-7.62h4.39c0,2.39.06,4.85.19,7.33v.11c2.3,47.45,27.31,90.27,66.92,114.51,12.67,7.75,26.82,13.5,42.06,17.08,11.43,2.69,22.84,4.05,33.91,4.05,23.01,0,45.88-5.65,66.14-16.34,17.57-8.42,34.12-20.06,49.24-34.66,29.06-28.05,48.71-49.87,61.84-68.69l3.6,2.51c-13.29,19.06-33.12,41.09-62.39,69.34-15.46,14.92-32.39,26.84-50.32,35.42-20.81,10.98-44.39,16.81-68.11,16.81Z" style="fill:#044a59;"/><path d="M184.36,284.58c-12.48,0-25.16-1.51-37.69-4.49-16.76-3.99-32.47-10.45-46.69-19.22-44.18-27.23-72.1-74.84-74.69-127.35v-.11c-.14-2.69-.21-5.43-.21-8.11h4.39c0,2.61.07,5.27.2,7.93,2.52,51.14,29.66,97.44,72.61,123.91,13.82,8.52,29.1,14.8,45.4,18.68,12.2,2.9,24.53,4.38,36.67,4.38,24.41,0,47.77-5.56,69.42-16.54,18.71-8.91,35.9-21.19,51.15-36.53,26.63-26.59,45.61-52.85,56.43-78.04l4.03,1.73c-11.04,25.71-30.33,52.43-57.36,79.41-15.6,15.7-33.2,28.27-52.32,37.37-22.22,11.26-46.25,16.99-71.36,16.99Z" style="fill:#044a59;"/><path d="M184.36,296.39c-13.55,0-27.16-1.62-40.46-4.82-17.82-4.28-34.65-11.29-50.03-20.82C46.35,241.29,16.3,190.21,13.5,134.13c-.15-2.99-.22-5.93-.22-8.83h4.39c0,2.82.07,5.69.21,8.53,2.74,54.73,32.01,104.49,78.3,133.2,14.98,9.29,31.38,16.11,48.75,20.29,12.97,3.12,26.23,4.7,39.44,4.7,25.49,0,49.95-5.63,72.7-16.74,19.75-9.35,37.59-22.27,53.07-38.41,25.57-26.54,43.25-56.78,51.13-87.45l4.25,1.09c-8.06,31.4-26.12,62.32-52.21,89.4-15.84,16.53-34.12,29.76-54.33,39.33-23.33,11.39-48.44,17.17-74.6,17.17Z" style="fill:#044a59;"/><path d="M184.36,308.21C83.51,308.21,1.46,226.15,1.46,125.3h4.39c0,98.44,80.08,178.52,178.5,178.52,43.42,0,85.27-15.78,117.84-44.43,32.27-28.39,53.22-67.36,59.01-109.73l4.35.59c-5.92,43.42-27.39,83.35-60.46,112.44-33.37,29.36-76.25,45.53-120.74,45.53Z" style="fill:#044a59;"/><path d="M365.05,125.3c0,8.37-.57,16.59-1.68,24.65-20.47,9.16-44.56,24.64-72.56,49.61-15.08,13.46-30.49,23.74-45.79,31.17-31.32,15.23-62.26,18.54-89.55,12.76-12.27-3-23.83-7.83-34.33-14.22,28.28-2.41,101.86-61.91,168.44-103.97,5.38-3.39,10.72-6.69,16-9.82,20.17-12.01,39.26-21.74,55.71-27.01,2.47,11.89,3.76,24.21,3.76,36.82Z" style="fill:url(#New_Gradient_Swatch_copy_3);"/><path d="M181.24,249.82c-8.97,0-17.83-.91-26.52-2.75l-.11-.03c-12.53-3.06-24.43-7.99-35.37-14.65l-9.56-5.82,11.15-.95c18-1.54,58.09-29.35,100.54-58.81,21.77-15.11,44.29-30.73,66.26-44.61,5.92-3.73,11.18-6.96,16.09-9.87,22.65-13.49,41.12-22.43,56.46-27.34l3.87-1.24.83,3.98c2.54,12.25,3.84,24.89,3.84,37.57,0,8.42-.58,16.89-1.72,25.15l-.28,2.01-1.85.83c-22.21,9.94-46.31,26.42-71.62,49-14.83,13.23-30.52,23.91-46.63,31.74-21.54,10.47-43.74,15.8-65.38,15.8ZM156.29,239.92c28.03,5.92,58.16,1.61,87.13-12.48,15.5-7.53,30.63-17.83,44.95-30.61,25.17-22.45,49.26-39.05,71.64-49.37.92-7.3,1.39-14.74,1.39-22.16,0-10.78-.97-21.54-2.89-32.02-14.03,4.96-30.79,13.29-51.05,25.35-4.86,2.88-10.07,6.07-15.92,9.77-21.84,13.79-44.28,29.37-65.99,44.43-38.66,26.83-72.81,50.52-94.34,57.84,7.95,4.01,16.36,7.11,25.1,9.25Z" style="fill:#044a59;"/><path d="M110.08,125.3H3.66c0-21.81,3.86-42.73,10.96-62.1,7.62,1.42,15.23,5.19,22.72,10.23,9.8,6.58,19.41,15.3,28.69,23.71,16.02,14.56,31,28.16,44.06,28.16Z" style="fill:url(#New_Gradient_Swatch);"/><path d="M110.08,128.96H0v-3.66c0-21.79,3.76-43.11,11.18-63.36l1.06-2.9,3.04.57c7.48,1.39,15.36,4.92,24.09,10.79,10.01,6.72,19.7,15.51,29.07,24.01,15.43,14.02,29.98,27.24,41.64,27.24v7.31ZM7.35,121.64h82.64c-8.51-5.52-17.33-13.53-26.43-21.8-9.21-8.35-18.7-16.96-28.27-23.38-6.67-4.48-12.7-7.44-18.33-8.97-6.01,17.39-9.24,35.58-9.62,54.15Z" style="fill:#044a59;"/><path d="M184.36,309.67C82.7,309.67,0,226.96,0,125.3v-3.66h66.36v3.66c0,1.95.05,3.93.16,6.07v.15c1.89,40.39,21.87,74.9,54.83,94.7,10.71,6.43,22.45,11.04,34.9,13.69l.1.02c9.17,2.23,18.6,3.36,28.01,3.36,20.64,0,40.99-5.44,58.84-15.73l.23-.12c15.5-7.53,30.62-17.83,44.95-30.61,25.87-23.08,50.6-39.97,73.5-50.22l6.01-2.69-.89,6.52c-5.97,43.76-27.61,84.01-60.94,113.33-33.63,29.59-76.86,45.89-121.7,45.89ZM7.35,128.96c1.95,95.95,80.6,173.4,177,173.4,43.07,0,84.57-15.65,116.87-44.07,30.29-26.65,50.53-62.69,57.47-102.09-20.48,10.12-42.46,25.59-65.45,46.09-14.79,13.2-30.44,23.86-46.51,31.68-18.94,10.89-40.5,16.65-62.38,16.65-9.98,0-19.97-1.2-29.69-3.56-13.22-2.83-25.69-7.72-37.09-14.56-35.12-21.1-56.4-57.81-58.37-100.72v-.14c-.05-.92-.08-1.81-.11-2.68H7.35Z" style="fill:#044a59;"/><path d="M207.7,125.3h-97.62c-13.06,0-28.04-13.61-44.06-28.16-9.27-8.41-18.89-17.13-28.69-23.71l32.2-28.37,13.81,12.43,29.67,26.67h21.89s28.37,41.14,72.81,41.14Z" style="fill:url(#New_Gradient_Swatch-2);"/><path d="M207.7,128.96h-97.62c-14.48,0-30.05-14.14-46.52-29.11-9.21-8.35-18.7-16.96-28.27-23.38l-3.94-2.65,38.2-33.65,44.85,40.34h22.4l1.09,1.58c.27.39,27.86,39.56,69.8,39.56v7.31ZM43.24,73.09c8.65,6.29,17.05,13.91,25.21,21.31,15.43,14.02,29.98,27.24,41.64,27.24h64.58c-22.73-10.27-37.5-28.32-41.63-33.82h-21.42l-42.1-37.86-26.27,23.14Z" style="fill:#044a59;"/><path d="M305.59,115.48c-5.28,3.13-10.62,6.42-16,9.82h-81.88c-44.44,0-72.81-41.14-72.81-41.14h-21.89l-29.67-26.67C105.2,25.02,142.28,3.66,184.36,3.66c63.87,0,116.21,49.24,121.23,111.82Z" style="fill:url(#New_Gradient_Swatch_copy);"/><path d="M290.64,128.96h-82.94c-41.32,0-68.78-33.3-74.67-41.14h-21.42l-33.07-29.73,1.77-2.64C103.67,20.73,142.57,0,184.36,0c31.7,0,61.95,11.87,85.17,33.42,23.09,21.43,37.19,50.47,39.7,81.77l.18,2.27-1.96,1.16c-4.85,2.88-10.06,6.07-15.92,9.76l-.89.56ZM114.41,80.5h22.4l1.09,1.58c.27.39,27.86,39.56,69.8,39.56h80.82c4.77-3,9.12-5.68,13.21-8.12-2.84-28.61-15.99-55.07-37.18-74.74-21.87-20.29-50.35-31.47-80.2-31.47-38.29,0-74,18.48-96.17,49.61l26.23,23.58Z" style="fill:#044a59;"/></svg>